<svg xmlns="http://www.w3.org/2000/svg" xmlns:xlink="http://www.w3.org/1999/xlink" aria-hidden="true" role="img" class="iconify iconify--logos" width="35.93" height="32" preserveAspectRatio="xMidYMid meet" viewBox="0 0 256 228">
    <path fill="#00D8FF" d="M210.483 73.824c-1.2-.1-2.4-.2-3.6-.3-1.3-.1-2.7-.2-4.1-.3c-2.2-1.5-4.6-3.2-7.1-5.1-4.1-3.1-8.2-6.7-12.1-10.8-4.7-4.9-9.4-10.6-13.6-16.8-1.3-1.8-2.5-3.7-3.7-5.6-1.3-2-2.5-4.1-3.6-6.1-2-3.5-4-7-5.8-10.5-6.2-11.7-10.7-24.2-12.9-36.9-0.3-2.7-0.5-5.4-0.7-8.1 0-1.7 0-3.4 0-5.2-0.5-7.7-1-15.5-1.6-23.2 0-4.4 0-8.7 0-12.8 0-2.7 0-5.4 0-8.2 0.5-8 1.1-15.9 1.6-23.9 0-0.3 0-0.6 0-1 0-4.8 0-9.6 0-14.4 0.3-13.6 2.5-26.9 7.5-38.8 10.2-21.2 29.5-38.3 54.6-50.3C123.8 1 152.2-1.7 178 5.6 195.6 11 208.8 21.8 218 35.5c1.2 2.2 2.1 4.5 2.7 6.9 3.2 13.4 0.2 24.5-9 31.7-3.3 2.8-7.1 4.7-11.4 5.7-5.1 1.1-10.5 1.4-16.1 0.9-1.2 0-2.4-0.1-3.7-0.1zm-6.365 70.984c-1.4.463-2.836.91-4.3 1.345-3.2-10.3-7.6-21.2-12.96-32.4 5.11-11 9.31-21.8 12.46-31.96 2.62.76 5.16 1.56 7.61 2.4 23.69 8.16 38.14 20.21 38.14 29.5 0 9.9-15.61 22.74-40.95 31.14zm-10.514 20.834c-0.9 5-1.9 10.2-2.9 15.4-8.9-.9-17.3-1.8-25-2.8-7.6-10-15.4-19.1-23.2-27.2 5.1-7.1 10.2-14.6 15.3-22.4 12.38-1.1 24.1-2.9 34.7-5.3a134.17 134.17 0 0 1 1.4 6.2zM87.276 214.515c-7.882 2.783-14.16 2.863-17.955 0.675-8.075-4.657-11.432-22.636-6.853-46.752a156.923 156.923 0 0 1 1.869-8.499c10.486 2.32 22.093 3.988 34.498 4.994 7.084 9.967 14.501 19.128 21.976 27.15a134.668 134.668 0 0 1-4.877 4.492c-9.933 8.682-19.886 14.842-28.658 17.94zM50.35 144.747c-12.483-4.267-22.792-9.812-29.858-15.863-6.35-5.437-9.555-10.836-9.555-15.216 0-9.322 13.897-21.212 37.076-29.293 2.813-.98 5.757-1.905 8.812-2.773 3.204 10.42 7.406 21.315 12.477 32.332-5.137 11.18-9.399 22.249-12.634 32.792a134.718 134.718 0 0 1-6.318-1.979zm12.378-84.26c-4.811-24.587-1.616-43.134 6.425-47.789 8.564-4.958 27.502 2.111 47.463 19.835a144.318 144.318 0 0 1 3.841 3.545c-7.438 7.987-14.787 17.08-21.808 26.988-12.04 1.116-23.565 2.908-34.161 5.309a160.342 160.342 0 0 1-1.76-7.887zm110.427 27.268a347.8 347.8 0 0 0-7.785-12.803c8.168 1.033 15.994 2.404 23.343 4.08-2.206 7.072-4.956 14.465-8.193 22.045a381.151 381.151 0 0 0-7.365-13.322zm-45.032-43.861c5.044 5.465 10.096 11.566 15.065 18.186a322.04 322.04 0 0 0-30.257-.006c4.974-6.559 10.069-12.652 15.192-18.18zM82.802 87.83a323.167 323.167 0 0 0-7.227 13.238c-3.184-7.553-5.909-14.98-8.134-22.152 7.304-1.634 15.093-2.97 23.209-3.984a321.524 321.524 0 0 0-7.848 12.897zm8.081 65.352c-8.385-.936-16.291-2.203-23.593-3.793 2.26-7.3 5.045-14.885 8.298-22.6a321.187 321.187 0 0 0 7.257 13.246c2.594 4.48 5.28 8.868 8.038 13.147zm37.542 31.03c-5.184-5.592-10.354-11.779-15.403-18.433 4.902.192 9.899.29 14.978.29 5.218 0 10.376-.117 15.453-.343-4.985 6.774-10.018 12.97-15.028 18.486zm52.198-57.817c3.422 7.8 6.306 15.345 8.596 22.52-7.422 1.694-15.436 3.058-23.88 4.071a382.417 382.417 0 0 0 7.859-13.026a347.403 347.403 0 0 0 7.425-13.565zm-16.898 8.101a358.557 358.557 0 0 1-12.281 19.815 329.4 329.4 0 0 1-23.444.823c-7.967 0-15.716-.248-23.178-.732a310.202 310.202 0 0 1-12.513-19.846h.001a307.41 307.41 0 0 1-10.923-20.627 310.278 310.278 0 0 1 10.89-20.637l-.001.001a307.318 307.318 0 0 1 12.413-19.761c7.613-.576 15.42-.876 23.31-.876H128c7.926 0 15.743.303 23.354.883a329.357 329.357 0 0 1 12.335 19.695 358.489 358.489 0 0 1 11.036 20.54 329.472 329.472 0 0 1-11 20.722Zm22.56-122.124c8.572 4.944 11.906 24.881 6.52 51.026-.344 1.668-.73 3.367-1.15 5.09-10.622-2.452-22.155-4.275-34.23-5.408-7.034-10.017-14.323-19.124-21.64-27.008a160.789 160.789 0 0 1 5.888-5.4c18.9-16.447 36.564-22.941 44.612-18.3ZM128 90.808c12.625 0 22.86 10.235 22.86 22.86s-10.235 22.86-22.86 22.86-22.86-10.235-22.86-22.86 10.235-22.86 22.86-22.86Z"></path>
</svg>
